<html>
<head>
<meta charset="UTF-8">
<meta name="viewport" content="width=device-width, initial-scale=1.0"/>

<style>
.comment
{
    padding-left: 20px;
    margin-top: 4px;
    margin-right: 4px;
    margin-bottom: 4px;
    border: 2px #000 solid;
}
.submission
{
    border: 4px #00f solid;
    padding-left: 20px;
}
.hidden
{
    display: none;
}
</style>
</head>
<body><div class="submission" id="t3_6315xl">
    <p class="userinfo">
        <a href="https://www.reddit.com/u/Ethan2k16">Ethan2k16</a>
        <span class="score"> | 11 points</span>
        <span class="timestamp"> | Apr 02 2017 18:07:34</span>
    </p>
    <strong>[MOVIE] The Window (1949) Barbara Hale ENG [625.2 MB]</strong>
    <p><pre><code>Link: https://mega.nz/#F!dEA1haiY
DKey: !9DSbr6Vyuazskzxa52bUlw
</code></pre></p>
    <p class="toolbar">
        <a href="https://www.reddit.com/r/megalinks/comments/6315xl">permalink</a>
    </p>
</div>
<div class="comment" id="t1_dfqkr2v">
    <p class="userinfo">
        <a
        class="toggle_hide_button"
        href="javascript:void(0)"
        onclick="toggle_collapse(this.parentElement.parentElement)">[-]
        </a>
        <a href="https://www.reddit.com/u/dosemeele">dosemeele</a>
        <span class="score"> | 3 points</span>
        <span class="timestamp"> | Apr 02 2017 19:11:05</span>
    </p>
    <div class="collapsible">
        <p>Received! Thank you very much for the data of the film!</p>
        <p class="toolbar">
            <a href="https://www.reddit.com/r/megalinks/comments/6315xl/_/dfqkr2v">permalink</a>
        </p>
        
    </div>
</div>

<div class="comment" id="t1_dfqhw9u">
    <p class="userinfo">
        <a
        class="toggle_hide_button"
        href="javascript:void(0)"
        onclick="toggle_collapse(this.parentElement.parentElement)">[-]
        </a>
        <a href="https://www.reddit.com/u/boltrop">boltrop</a>
        <span class="score"> | 2 points</span>
        <span class="timestamp"> | Apr 02 2017 18:10:07</span>
    </p>
    <div class="collapsible">
        <h3><a href="https://images-na.ssl-images-amazon.com/images/M/MV5BMjIyNjU4MDMyMV5BMl5BanBnXkFtZTgwNTMxOTgwMzE@._V1._CR30,70,301,428_.jpg">The Window</a> (1949)</h3>
<p><strong>Genre</strong>: Drama, Film-Noir, Thriller</p>
<p><strong>Rating</strong>:  7.4 (2445 votes)</p>
<p><strong>Certification</strong>: TV-G</p>
<p><strong>Runtime</strong>: 73 min</p>
<hr>
<blockquote>
<p><strong>Director(s)</strong>: <a href="https://www.imdb.com/name/nm0005898/">Ted Tetzlaff</a></p>
<p><strong>Writer(s)</strong>: <a href="https://www.imdb.com/name/nm0227571/">Mel Dinelli</a>, <a href="https://www.imdb.com/name/nm0941280/">Cornell Woolrich</a></p>
<p><strong>Cast</strong>: <a href="https://www.imdb.com/name/nm0237985/">Bobby Driscoll</a>, <a href="https://www.imdb.com/name/nm0354853/">Barbara Hale</a>, <a href="https://www.imdb.com/name/nm0447913/">Arthur Kennedy</a>, <a href="https://www.imdb.com/name/nm0829717/">Paul Stewart</a></p>
<p><strong>Plot</strong>: To avoid the heat of a sweltering summer night a 9 year old Manhattan boy decides to sleep on the fire escape and witnesses a murder, no one will believe him.</p>
</blockquote>
<hr>
<p>^This ^summary ^is ^taken ^from <a href="https://www.imdb.com/title/tt0042046/">^imdb.com</a> ^| ^For ^feedback ^or ^suggestions ^contact <a href="http://www.reddit.com/message/compose/?to=indigo6alpha">^/u/indigo6alpha</a></p>
        <p class="toolbar">
            <a href="https://www.reddit.com/r/megalinks/comments/6315xl/_/dfqhw9u">permalink</a>
        </p>
        
    </div>
</div>

<div class="comment" id="t1_dfqjx6q">
    <p class="userinfo">
        <a
        class="toggle_hide_button"
        href="javascript:void(0)"
        onclick="toggle_collapse(this.parentElement.parentElement)">[-]
        </a>
        <a href="https://www.reddit.com/u/dosemeele">dosemeele</a>
        <span class="score"> | 2 points</span>
        <span class="timestamp"> | Apr 02 2017 18:53:14</span>
    </p>
    <div class="collapsible">
        <p>Thank you very much for the movie! Can you send me the details of the movie?</p>
        <p class="toolbar">
            <a href="https://www.reddit.com/r/megalinks/comments/6315xl/_/dfqjx6q">permalink</a>
        </p>
        <div class="comment" id="t1_dfqk3ff">
    <p class="userinfo">
        <a
        class="toggle_hide_button"
        href="javascript:void(0)"
        onclick="toggle_collapse(this.parentElement.parentElement)">[-]
        </a>
        <a href="https://www.reddit.com/u/Ethan2k16">Ethan2k16</a>
        <span class="score"> | 3 points</span>
        <span class="timestamp"> | Apr 02 2017 18:56:57</span>
    </p>
    <div class="collapsible">
        <p>Sure! What information are you looking for?</p>
<p>File metadata:</p>
<pre><code>Duration: 01:12:44.32, start: 0.000000, bitrate: 1201 kb/s
Stream #0:0: Video: mpeg4 (DX50 / 0x30355844), yuv420p, 704x528 [SAR 1:1 DAR 4:3], 1066 kb/s, 23.98 fps, 23.98 tbr, 23.98 tbn, 30k tbc
Stream #0:1: Audio: mp3 (U[0][0][0] / 0x0055), 48000 Hz, stereo, s16p, 128 kb/s
</code></pre>
        <p class="toolbar">
            <a href="https://www.reddit.com/r/megalinks/comments/6315xl/_/dfqk3ff">permalink</a>
        </p>
        
    </div>
</div>
    </div>
</div>

<div class="comment" id="t1_dfqks9x">
    <p class="userinfo">
        <a
        class="toggle_hide_button"
        href="javascript:void(0)"
        onclick="toggle_collapse(this.parentElement.parentElement)">[-]
        </a>
        <a href="https://www.reddit.com/u/SubZorro">SubZorro</a>
        <span class="score"> | 1 points</span>
        <span class="timestamp"> | Apr 02 2017 19:11:47</span>
    </p>
    <div class="collapsible">
        <h5>Subtitles for this movie:</h5>
<hr>
<blockquote>
<ul>
<li><strong>The Window</strong> - <code>1 CD</code> - <a href="http://dl.opensubtitles.org/en/download/vrf-ad946fcb/sub/6734991">Download Subtitle</a></li>
</ul>
</blockquote>
<hr>
<p>^This ^list ^of ^subtitles ^are ^taken ^from <a href="http://www.opensubtitles.org">^opensubtitles.org</a> ^| ^For ^feedback ^or ^suggestions ^contact <a href="http://www.reddit.com/message/compose/?to=indigo6alpha">^/u/indigo6alpha</a></p>
        <p class="toolbar">
            <a href="https://www.reddit.com/r/megalinks/comments/6315xl/_/dfqks9x">permalink</a>
        </p>
        
    </div>
</div>
</body>

<script>
function toggle_collapse(comment_div)
{
    var button = comment_div.getElementsByClassName("toggle_hide_button")[0];
    var collapsible = comment_div.getElementsByClassName("collapsible")[0];
    if (collapsible.classList.contains("hidden"))
    {
        collapsible.classList.remove("hidden");
        button.innerText = "[-]";
    }
    else
    {
        collapsible.classList.add("hidden");
        button.innerText = "[+]";
    }
}
</script>
</html>
